<svg width="1600" height="600" viewBox="0 0 1600 600" fill="none" xmlns="http://www.w3.org/2000/svg">
  <!-- Industrial Background -->
  <rect width="1600" height="600" fill="url(#industrialGradient)"/>
  
  <!-- Pipe Network Pattern -->
  <g opacity="0.3">
    <!-- Horizontal pipes -->
    <rect x="0" y="150" width="400" height="8" fill="#1DB954"/>
    <rect x="500" y="200" width="600" height="8" fill="#1DB954"/>
    <rect x="1200" y="150" width="400" height="8" fill="#1DB954"/>
    <rect x="200" y="400" width="800" height="8" fill="#1DB954"/>
    <rect x="1100" y="450" width="500" height="8" fill="#1DB954"/>
    
    <!-- Vertical pipes -->
    <rect x="400" y="100" width="8" height="150" fill="#1DB954"/>
    <rect x="1100" y="150" width="8" height="100" fill="#1DB954"/>
    <rect x="300" y="350" width="8" height="100" fill="#1DB954"/>
    <rect x="1000" y="300" width="8" height="200" fill="#1DB954"/>
    
    <!-- Pipe joints/connectors -->
    <circle cx="404" cy="154" r="12" fill="#2563eb"/>
    <circle cx="1104" cy="154" r="12" fill="#2563eb"/>
    <circle cx="304" cy="404" r="12" fill="#2563eb"/>
    <circle cx="1004" cy="404" r="12" fill="#2563eb"/>
  </g>
  
  <!-- Industrial facility silhouette -->
  <g opacity="0.2">
    <rect x="100" y="500" width="60" height="100" fill="#374151"/>
    <rect x="200" y="480" width="80" height="120" fill="#374151"/>
    <rect x="320" y="460" width="100" height="140" fill="#374151"/>
    <rect x="1200" y="520" width="70" height="80" fill="#374151"/>
    <rect x="1300" y="500" width="90" height="100" fill="#374151"/>
    <rect x="1420" y="480" width="60" height="120" fill="#374151"/>
  </g>
  
  <defs>
    <linearGradient id="industrialGradient" x1="0%" y1="0%" x2="100%" y2="100%">
      <stop offset="0%" style="stop-color:#1f2937;stop-opacity:1" />
      <stop offset="50%" style="stop-color:#374151;stop-opacity:0.9" />
      <stop offset="100%" style="stop-color:#111827;stop-opacity:1" />
    </linearGradient>
  </defs>
</svg>